# xmcd
#
# Track frame offsets: 
#        150
#        15675
#        27610
#        40726
#        50851
#        67258
#        80374
#        94699
#        106043
#        123978
#        137582
#        153707
#        167047
#        179122
#        193879
#        206667
#        220167
#        231408
#        245837
#        259431
#        273456
#        287997
#        302979
#        315926
#        326089
#        337339
#
# Disc length: 4662 seconds
#
# Revision: 1
# Processed by: cddbd v1.5.2PL0 Copyright (c) Steve Scherf et al.
# Submitted via: ExactAudioCopyFreeDBPlugin 1.0
#
DISCID=a312341a
DTITLE=John Lee Hooker - The Folk Lore Of John Lee Hooker and Folk Blues
DYEAR=2014
DGENRE=Blues
TTITLE0=Tupelo
TTITLE1=I'm Mad Again
TTITLE2=I'm Going Upstairs
TTITLE3=Want Ad Blues
TTITLE4=Five Long Years
TTITLE5=I Like To See You Walk
TTITLE6=The Hobo
TTITLE7=Hard Headed Woman
TTITLE8=Wednesday Evening Blues
TTITLE9=Take Me As I Am
TTITLE10=My First Wife Left Me
TTITLE11=You're Looking Good Tonight
TTITLE12=Baby I'm Gonna Miss You
TTITLE13=Half A Stranger
TTITLE14=Shake Holler And Run
TTITLE15=Down Child
TTITLE16=Gonna Boogie
TTITLE17=Bad Boy
TTITLE18=Rock House Boogie
TTITLE19=Let's Talk It Over
TTITLE20=Baby You Ain't No Good
TTITLE21=Lookin' For A Woman
TTITLE22=Devil's Jump
TTITLE23=Run On
TTITLE24=You've Taken My Woman
TTITLE25=Rosie Mae
EXTD=
EXTT0=
EXTT1=
EXTT2=
EXTT3=
EXTT4=
EXTT5=
EXTT6=
EXTT7=
EXTT8=
EXTT9=
EXTT10=
EXTT11=
EXTT12=
EXTT13=
EXTT14=
EXTT15=
EXTT16=
EXTT17=
EXTT18=
EXTT19=
EXTT20=
EXTT21=
EXTT22=
EXTT23=
EXTT24=
EXTT25=
PLAYORDER=
